/* XPM */
static char *backup_ok_big[] = {
/* columns rows colors chars-per-pixel */
"64 64 197 2 ",
"   c #040404",
".  c #0D0D0D",
"X  c #141414",
"o  c #181717",
"O  c #1B1B1B",
"+  c #222222",
"@  c #2B2B2B",
"#  c #253D3A",
"$  c #343434",
"%  c #3D3D3D",
"&  c #273D41",
"*  c #333B42",
"=  c #353D48",
"-  c #264440",
";  c #2F4246",
":  c #274B40",
">  c #334149",
",  c #3B434B",
"<  c #384B4F",
"1  c #2C5146",
"2  c #3D5053",
"3  c #444444",
"4  c #46494E",
"5  c #4C4C4C",
"6  c #504F4F",
"7  c #424951",
"8  c #4B4D52",
"9  c #4F5050",
"0  c #535353",
"q  c #53555B",
"w  c #56585F",
"e  c #5B5B5B",
"r  c #636363",
"t  c #64666C",
"y  c #6C6C6C",
"u  c #706F6F",
"i  c #747474",
"p  c #787777",
"a  c #7C7C7C",
"s  c #807F7F",
"d  c #2EA43C",
"f  c #23DC2E",
"g  c #26DA31",
"h  c #2CDD37",
"j  c #34DE3C",
"k  c #2EE035",
"l  c #30E036",
"z  c #34E03B",
"x  c #38E13E",
"c  c #36E83D",
"v  c #529E5D",
"b  c #60A476",
"n  c #35DE40",
"m  c #39DE43",
"M  c #3BD84D",
"N  c #39E140",
"B  c #45DF4F",
"V  c #4FDF57",
"C  c #4ED75F",
"Z  c #4ED95E",
"A  c #50D45B",
"S  c #51DE5B",
"D  c #42E14A",
"F  c #49E24F",
"G  c #4EE156",
"H  c #4FE058",
"J  c #52E15B",
"K  c #4FD860",
"L  c #56D266",
"P  c #51D961",
"I  c #5ADB65",
"U  c #57D069",
"Y  c #5CDB6A",
"T  c #62DB6F",
"R  c #63DB71",
"E  c #6DD77E",
"W  c #6ADA79",
"Q  c #70DB7D",
"!  c #70E47A",
"~  c #698D81",
"^  c #758E8D",
"/  c #7E9095",
"(  c #76CD8B",
")  c #79CC8F",
"_  c #6FD781",
"`  c #71D684",
"'  c #73DB84",
"]  c #75D589",
"[  c #78D48D",
"{  c #78DB8A",
"}  c #7ACB91",
"|  c #7ED194",
" . c #848383",
".. c #888787",
"X. c #8C8C8C",
"o. c #908F8F",
"O. c #949393",
"+. c #989797",
"@. c #979898",
"#. c #9C9B9B",
"$. c #A09F9F",
"%. c #87BC93",
"&. c #8ABB97",
"*. c #8DBD9A",
"=. c #A09FA0",
"-. c #97B3A3",
";. c #A4A3A3",
":. c #A8A7A7",
">. c #ACA7A9",
",. c #ACABAC",
"<. c #B1AEAF",
"1. c #A4AAB3",
"2. c #B5ADB2",
"3. c #AEB4B6",
"4. c #B4B3B3",
"5. c #B8B6B6",
"6. c #BFB7BB",
"7. c #BCBBBB",
"8. c #C0BFBF",
"9. c #82CC9C",
"0. c #91C29E",
"q. c #80D097",
"w. c #81D099",
"e. c #87CFA0",
"r. c #8BCDA5",
"t. c #8DCBA9",
"y. c #96C3A1",
"u. c #91CEAD",
"i. c #9BCBA8",
"p. c #99C7B7",
"a. c #96CAB5",
"s. c #9AC9B7",
"d. c #9BC7BA",
"f. c #9CC9BB",
"g. c #95D4B2",
"h. c #B3C3BE",
"j. c #A1D3BA",
"k. c #C1C0BF",
"l. c #B1BBC3",
"z. c #C3BEC1",
"x. c #A6CBC4",
"c. c #A9CAC7",
"v. c #ADCACB",
"b. c #B2CACF",
"n. c #A9D4C0",
"m. c #B2D0CD",
"M. c #B9DECC",
"N. c #B5CCD3",
"B. c #BBCED6",
"V. c #BECFD8",
"C. c #B6D3D6",
"Z. c #BAD3D5",
"A. c #BDD0D9",
"S. c #C4C3C3",
"D. c #C8C6C7",
"F. c #C4C6C8",
"G. c #C9C6C8",
"H. c #C4C9CC",
"J. c #CCCBCC",
"K. c #D0CECE",
"L. c #C1CBD6",
"P. c #C2CFDC",
"I. c #D2CDD0",
"U. c #D8CAD3",
"Y. c #CED0D1",
"T. c #C4D3DC",
"R. c #C8D6DD",
"E. c #D4D3D3",
"W. c #D9D6D6",
"Q. c #D9D8D7",
"!. c #D3D7D9",
"~. c #DAD7D8",
"^. c #DCDBDB",
"/. c #E1DEDE",
"(. c #C6E5D4",
"). c #D2EFD9",
"_. c #CDD7E2",
"`. c #CED8E2",
"'. c #D6DBE6",
"]. c #DADCE5",
"[. c #D4DEE8",
"{. c #DADEEE",
"}. c #E9DDE5",
"|. c #D9E1E9",
" X c #E4E3E3",
".X c #E9E6E6",
"XX c #E3E6EE",
"oX c #ECEAEA",
"OX c #F1EEEE",
"+X c #E4E9F2",
"@X c #ECEAF8",
"#X c #F4F2F2",
"$X c #F9F6F6",
"%X c #F6F7FB",
"&X c #F7F8F8",
"*X c #FCFBFB",
"=X c None",
/* pixels */
"=X=X=X=X=X=X=X=X=X=X=X=X=X=X=X=X=X=X=X=X=X=X=X=X=X=X_.T.A.C.A.A.Z.B.Z.Z.B.T.=X=X=X=X=X=X=X=X=X=X=X=X=X=X=X=X=X=X=X=X=X=X=X=X=X=X",
"=X=X=X=X=X=X=X=X=X=X=X=X=X=X=X=X=X=X=X=X=X=X=X=X=XN.A.T.N.v.N.b.b.N.N.b.N.v.T.=X=X=X=X=X=X=X=X=X=X=X=X=X=X=X=X=X=X=X=X=X=X=X=X=X",
"=X=X=Xl.C.Z.C.C.Z.C.Z.Z.Z.Z.Z.Z.B.Z.Z.B.Z.Z.Z.T.m.v.b.N.T._._._._.R._._._._._.T.j.x.x.f.x.x.j.x.x.x.x.x.x.x.x.x.x.c.x.x.x.T.=X=X",
"=X=X, * ^ c.x.x.x.x.x.x.x.x.x.x.x.x.x.c.x.c.x.x.c.c.N.v.c.`.].'.'.'.].'.'.'.'.'.B.N.B.B.B.B.B.B.Z.B.B.Z.B.V.C.B.B.B.A.A.Z.B.|.=X",
"=Xt 7 8 w L._._._._.`.`._._._._._._.`._.'._.`._.`.'.`.R.f.N.R.P.P.P.R.R.T.R.P.R.'.'.'.'.'.'.'.'.'.'.'.'.'.'.'.'.'.'.'.'.'.'.].XX",
"=Xq 8 8 8 1.{._.`.`.`.`._._._._._._._._._._._._._.R._.`.f.d.b.b.b.v.v.v.v.v.v.c.T.T.P.B.B.P.V.P.P.B.V.V.V.V.B.V.B.B.A.A.B.B.B.B.",
"=X, 7 7 , X.B.v.b.v.v.v.v.v.v.v.c.v.v.v.c.c.v.v.c.c.v.v.a.r.f.f.f.f.f.f.f.f.d.f.v.f.f.f.f.x.f.f.f.f.f.f.f.f.f.f.f.f.f.f.f.f.f.a.",
"=X> , , = b a.u.t.t.t.t.t.t.t.t.t.t.t.t.t.t.r.r.t.r.t.t.w.[ r.e.e.9.e.e.9.e.e.e.u.9.w.w.w.} q.9.q.w.w.w.9.q.q.| | q.q.| | | } 9.",
"=X< ; > > b ' ' ] ] ` ` ` ' ` _ ` _ ` _ ` _ _ ` Q E Q [ W E ] ] ] ] ] ] ] ] ` [ ] T R R R R R R R R T T R T T R T T R T T I Q =X",
"=X2 - & 1 A J Z Z Z S S J P S S H Z V S S V V V S V S T J Y T T R R R T T T T W D x N N N N m N x N x x x x z z z x z z z m =X=X",
"=X=X# : d c z N z z z z z z z z z z z z j z z l h D F D D V S J H J H G G H F T Y A P P P P P P K K P K A P Z Z A Z Z Z I ' =X=X",
"=X=X=X=X=X=X=X=X=X=X=X=X=X=X=X=X=X=X=X=X=X=X=X=X! f g f z j j x z z z z j j x =X=X=X=X=X=X=X=X=X=X=X=X=X=X=X=X=X=X=X=X=X=X=X=X=X",
"=X=X=X=X=X=X=X=X=X=X=X=X=X=X=X=X=X=X=X=X=X=X=X=X=XM h j N m m m m m m j h j { =X=X=X=X=X=X=X=X=X=X=X=X=X=X=X=X=X=X=X=X=X=X=X=X=X",
"=X=X=X=X=X=X=X=X=X=X=X=X=X=X=X=X=X=X=X=X=X=X=X=X=X=Xv R ] t.j.(.).M.j.=X=X=X=X=X=X=X=X=X=X=X=X=X=X=X=X=X=X=X=X=X=X=X=X=X=X=X=X=X",
"=X=X=X=X=X=X=X=X=X=X=X=X=X=X=X=X=X=X=X=X=X;.D.z.S.U.y.L } f.P.@X*X{.B.].}.}. X/.=X=X=X=X=X=X=X=X=X=X=X=X=X=X=X=X=X=X=X=X=X=X=X=X",
"=X=X=X=X=X=X=X=X=X=X=X=X=X=X=X=X4.#.8.S.J.I.G.J.G.I.i.L ) f.L.+X%X[.N.!./.^./. X.X.XoXoX=X=X=X=X=X=X=X=X=X=X=X=X=X=X=X=X=X=X=X=X",
"=X=X=X=X=X=X=X=X=X=X=X=X=X>.5.7.k.D.b.8.8.k.k.k.8.z.y.U ) s.A.+X$X[.N.E.E./././. X X.X.XOXOX#X=X=X=X=X=X=X=X=X=X=X=X=X=X=X=X=X=X",
"=X=X=X=X=X=X=X=X=X=X=X4.4.7.7.7.5.5.5.5.5.5.8.8.8.8.-.I ) s.A.+X&X[.B.K.E.E.W././. X X.X.XoXOXOX#X#X=X=X=X=X=X=X=X=X=X=X=X=X=X=X",
"=X=X=X=X=X=X=X=X=X#.<.4.4.<.<.<.,.<.<.<.<.4.<.4.5.8.0.L ) s.A.+X%X'.B.J.E.E.W.Q././. X X.XoXoXOX#X$X$X=X=X=X=X=X=X=X=X=X=X=X=X=X",
"=X=X=X=X=X=X=X=X,.<.<.>.:.:.;.;.:.:.:.>.>.>.<.<.<.5.*.U ) s.A.+X%X|.m.G.K.E.E.W.W./././..X.XoXOXOX#X$X*X.X=X=X=X=X=X=X=X=X=X=X=X",
"=X=X=X=X=X=X=X;.;.;.$.$.$.$.$.$.$.$.$.$.;.:.:.,.,.2.&.U ) d.C.+X%X[.N.B.J.K.U.W.W./././. X.XoXoXOX#X#X$X*X$X=X=X=X=X=X=X=X=X=X=X",
"=X=X=X=X=X=X$.#.+.+.O.O.O.O.O.+.+.+.$.$.$.;.;.:.:.2.&.U ) d.V.+X%X[.N.S.J.J.K.E.E.W.Q././. X.XoXOX#X#X$X*X*XOX=X=X=X=X=X=X=X=X=X",
"=X=X=X=X=XX.+.O.o.X.X.X.o.o.o.o.O.+.+.#.#.$.$.;.:.<.%.L ) d.A.+X%X[.N.F.G.K.K.E.E.W.Q././..X.XoXoXOX#X$X$X*X$X=X=X=X=X=X=X=X=X=X",
"=X=X=X=X=XX... ... . . . .....o.o.o.O.+.+.$.$.;.;.>.-.U ( p.A.+X%X[.Z.F.G.G.K.E.E.W.W././.}..XoXoXOX#X$X$X*X*X.X=X=X=X=X=X=X=X=X",
"=X=X=X=X=X .a a a a a a  . .....X.o.O.O.+.#.$.$.;.:.,.0.q.a.B.+X*X|.H.D.G.J.K.K.W.W.Q./././..X.XOXOX#X$X*X*X*X X=X=X=X=X=X=X=X=X",
"=X=X=X=X=Xi i i i i a a s  . ...X.o.O.O.+.#.$.$.;.:.>.<.4.h.H.Q.!.D.S.S.G.J.K.I.K.W.Q././. X XoXoXOX#X#X$X*X*X X=X=X=X=X=X=X=X=X",
"=X=X=X=X=Xu y u i i p a s s ....X.o.o.+.+.#.$.$.;.:.>.,.<.5.5.4.7.7.S.S.D.J.K.K.W.W.Q.Q./. X.X.XOXOX#X$X$X*X*XJ.=X=X=X=X=X=X=X=X",
"=X=X=X=X=Xi u i i p a a s  .....X.o.o.O.+.#.$.$.;.:.,.<.2.2.4.8.7.z.S.S.D.J.K.E.K.W./././..X.XoXOXOX#X$X*X*X*X4.=X=X=X=X=X=X=X=X",
"=X=X=X=X=Xp i i p a s s s s ....X.o.o.+.#.#.$.;.:.:.,.<.4.4.8.5.8.S.S.D.G.K.K.I.W.W.^././.}..XoXOXOX#X$X*X*X^.#.=X=X=X=X=X=X=X=X",
"=X=X=X=X=Xp u p a a ^  . .....o.o.O.+.+.#.$.$.;.:.,.,.<.4.4.5.8.8.z.S.D.J.J.I.E.W.Q././.}..X.XoXOXOX#X$X*XoX3.#.=X=X=X=X=X=X=X=X",
"=X=X=X=X=Xp y y a  . . .....o.o.O.+.+.#.#.$.;.:.:.,.<.4.4.5.7.h.8.S.D.G.K.K.E.E.Q.^././. X.XoXOXOX#X$X*X X4.:.#.=X=X=X=X=X=X=X=X",
"=X=X=X=X=Xp u r e i ..X.o.X.o.o.O.+.#.#.$.$.:.:.,.,.<.4.5.7.7.k.8.S.D.G.J.K.E.W.Q.^././..X.XoXOXOX$X#X^.7.4.>.$.=X=X=X=X=X=X=X=X",
"=X=X=X=X=Xp u r e 6 6 s X.+.+.+.+.#.$.$.;.;.:.,.,.<.4.4.5.7.7.S.S.D.G.J.K.I.W.W.^././. X.X.XoXoX#X.XY.S.7.4.>.#.=X=X=X=X=X=X=X=X",
"=X=X=X=X=Xp u t e 6 3 % 3 r ..#.;.:.;.;.;.:.,.,.<.4.4.5.7.7.S.S.D.D.J.K.K.E.W.^.^././..X.XoXOXoX X!.Y.F.7.4.>.=.=X=X=X=X=X=X=X=X",
"=X=X=X=X=Xp u r e 6 5 % $ @ + $ e a X.:.5.4.4.5.5.5.7.7.8.k.S.G.G.J.K.K.E.W.~././.}. XoX#X*X$XoX).Q.J.F.h.4.,.=.=X=X=X=X=X=X=X=X",
"=X=X=X=X=Xp u r e 0 5 % $ @ + o     o $ 6 y  .#.,.4.5.7.8.S.S.S.G.K.K.K.E.K.K.K.E.). XoX$X*X#XoX}.Q.K.D.7.4.:.=.=X=X=X=X=X=X=X=X",
"=X=X=X=X=Xa u r e 6 5 % $ @ + O .       . O @ $ % 5 r y p  ...o.@.@.=.;.,.5.7.G.Y.Q..XOX&X*X#XoX/.W.K.S.7.4.,.$.=X=X=X=X=X=X=X=X",
"=X=X=X=X=Xa y r e 0 5 % % @ + O X     . o + + @ % 3 3 0 e r u a  .X.@.;.,.4.h.G.Y.^. XoX&X%X#XoX XW.K.F.7.4.:.=X=X=X=X=X=X=X=X=X",
"=X=X=X=X=X=Xu r e 6 5 % % @ + o .     . o O + $ % 3 9 e e y i a  .O.@.;.,.5.8.G.Y.Q.|.oX&X*X%XoX].Q.J.D.h.<.<.=X=X=X=X=X=X=X=X=X",
"=X=X=X=X=X+...r e 6 5 3 $ @ @ o X     . o O @ $ % 3 9 0 r y i a  .X.@.;.,.4.8.D.Y.^..XoX&X*X#XoX/.Q.Y.F.5.8..X=X=X=X=X=X=X=X=X=X",
"=X=X=X=X=XX.X.p 0 5 3 3 $ @ @ o .     . X + @ $ % 3 5 e r r i a ..X.@.;.,.4.8.D.E.^. XoX&X*X$XoX XQ.J.k.G.#X*X=X=X=X=X=X=X=X=X=X",
"=X=X=X=X=X .a s s q 3 % % @ + o . .   . X O @ @ % 3 9 0 r y i a ..o.@.;.,.5.7.D.Y.Q. XOX&X*X$XoX|.W.K.^.$X*X$X=X=X=X=X=X=X=X=X=X",
"=X=X=X=X=Xp i i s u r 3 $ @ + o X     . o + @ $ % 3 5 e e r i a  .o.@.;.,.4.h.F.Y.^.|.oX$X*X#XoX/./.oX$X*X*X$X=X=X=X=X=X=X=X=X=X",
"=X=X=X=X=Xy y u u s s u y 3 + o       . o O @ @ % 3 5 0 r y i a ..X.@.;.,.5.8.D.Y.Q. XOX$X*X#XoXoX#X$X$X*X*X*X=X=X=X=X=X=X=X=X=X",
"=X=X=X=X=Xi u i u s s s  . .a e $ O     . O + @ % 3 5 e e y i a  .o.+.;.>.4.7.D.K.Q./.oXOXoXoXoXOXOX#X$X*X*X#X=X=X=X=X=X=X=X=X=X",
"=X=X=X=X=Xi i i s s s s  .....O.+. .i r 5 3 $ $ % 3 5 0 r r u a  .o.#.;.,.4.S.J.E.Q./././. X.XoXoX#X$X$X*X*XS.=X=X=X=X=X=X=X=X=X",
"=X=X=X=X=Xi i a s s  . .....X.X.O.+.#.;.$.$.;.$.O.o.o.X.X.O.+.$.:.<.5.h.G.J.E.E.Q.^.)./. X.XoXoXOX#X$X$X*XQ.;.=X=X=X=X=X=X=X=X=X",
"=X=X=X=X=Xi y y b  . . ...X.X.o.O.+.+.#.$.;.:.,.,.4.4.5.7.8.8.S.F.F.G.J.J.E.E.E.Q.^./.}. X.XoXOX#X$X$X*XQ.,.;.=X=X=X=X=X=X=X=X=X",
"=X=X=X=X=Xi y e r a ..X.X.X.O.O.+.+.#.$.$.;.;.>.,.<.<.4.5.5.7.k.S.S.D.J.K.K.E.Q././.). X.XoXoXoX#X$X#XE.3.<.:.=X=X=X=X=X=X=X=X=X",
"=X=X=X=X=Xi y r 0 0 r  .O.@.+.+.+.#.#.$.;.;.,.,.,.4.4.5.7.7.k.S.S.D.J.J.K.E.W.Q.W././. X.XoXoX#XOX/.J.k.5.<.:.=X=X=X=X=X=X=X=X=X",
"=X=X=X=X=Xi y r e 5 3 % 0 i X.;.:.;.;.:.:.:.,.,.4.4.4.5.7.k.k.S.D.G.J.K.E.E.Q.Q././. X.X.XoXOXoX).E.J.k.5.3.:.=X=X=X=X=X=X=X=X=X",
"=X=X=X=X=Xi y r 0 0 3 % @ + $ 3 r o.$.;.<.5.4.5.5.5.7.7.7.k.S.D.G.J.K.E.E.W.^.^././. XoX&X&X#X.X/.E.J.S.7.<.:.=X=X=X=X=X=X=X=X=X",
"=X=X=X=X=Xi y r e 9 4 % $ @ O . .   O 5 y  .O.#.>.4.7.k.D.J.J.K.K.K.K.K.K.K.E.Q.~.^..X#X*X*X#X.X/.U.H.S.7.<.:.=X=X=X=X=X=X=X=X=X",
"=X=X=X=X=Xi r r 0 9 3 % $ @ O o .       . o @ % 0 e y i a  .X.O.#.$.;.,.4.5.k.G.I./..X#X&X*X#X|.^.E.J.S.7.<.:.=X=X=X=X=X=X=X=X=X",
"=X=X=X=X=Xi y r e 5 3 % $ @ + o .     X o + @ $ % 3 3 0 e r i a  .o.+.;.,.7.h.J.E.^. X#X*X*X#X.X X!.G.S.5.<.;.=X=X=X=X=X=X=X=X=X",
"=X=X=X=X=Xi y r e 6 3 % $ @ O o .     . o + @ $ % 5 0 e r u i s X.O.#.;.<.7.S.H.E.^.XXOX&X*X#X.X^.W.J.S.7.<.=X=X=X=X=X=X=X=X=X=X",
"=X=X=X=X=X=Xy r 0 9 3 % $ @ + o .     X O + @ $ % 5 9 e r y p s ..O.#.;.3.7.b.G.E.]..XoX*X*X#X|.).E.J.S.7.4.=X=X=X=X=X=X=X=X=X=X",
"=X=X=X=X=X=X=Xr e 9 5 % $ @ + o .     X o + @ $ % 3 9 e r y p s ..O.=.;.,.5.8.G.E./..X#X*X*X#X X/.!.J.S.7.=X=X=X=X=X=X=X=X=X=X=X",
"=X=X=X=X=X=X=X=X=X6 3 % $ @ O O .     . o + @ $ % 5 9 e r y p s ..O.#.;.<.5.k.J.E.^. X#X&X%X#XoX/.U.J.=X=X=X=X=X=X=X=X=X=X=X=X=X",
"=X=X=X=X=X=X=X=X=X=X3 % $ @ + o .     X O + @ $ % 3 0 e r y p s X.o.#.;.<.5.8.J.I.).XX#X*X*X#X.X^.W.=X=X=X=X=X=X=X=X=X=X=X=X=X=X",
"=X=X=X=X=X=X=X=X=X=X=X=X$ @ + o .     . O + @ $ 3 5 0 e r y i s ..O.#.;.<.5.b.D.E.^..XoX&X*X#XoX=X=X=X=X=X=X=X=X=X=X=X=X=X=X=X=X",
"=X=X=X=X=X=X=X=X=X=X=X=X=X=X=Xo .     X O + @ $ % 3 9 e r y i s ..O.#.;.<.5.k.D.!.^..XOX*X=X=X=X=X=X=X=X=X=X=X=X=X=X=X=X=X=X=X=X",
"=X=X=X=X=X=X=X=X=X=X=X=X=X=X=X=X=X=X=X. O + @ $ % 3 9 e r y i a ..O.#.:.<.5.k.J.E.=X=X=X=X=X=X=X=X=X=X=X=X=X=X=X=X=X=X=X=X=X=X=X",
"=X=X=X=X=X=X=X=X=X=X=X=X=X=X=X=X=X=X=X=X=X=X=X$ 3 3 9 e r y i ^ ..O.#.:.<.=X=X=X=X=X=X=X=X=X=X=X=X=X=X=X=X=X=X=X=X=X=X=X=X=X=X=X"
};
